<?xml version="1.0" encoding="utf-8"?>
<!-- Generator: Adobe Illustrator 16.0.0, SVG Export Plug-In . SVG Version: 6.00 Build 0)  -->
<!DOCTYPE svg PUBLIC "-//W3C//DTD SVG 1.1//EN" "http://www.w3.org/Graphics/SVG/1.1/DTD/svg11.dtd">
<svg version="1.1" id="图层_1" xmlns="http://www.w3.org/2000/svg" xmlns:xlink="http://www.w3.org/1999/xlink" x="0px" y="0px"
	 width="595.28px" height="841.89px" viewBox="0 0 595.28 841.89" enable-background="new 0 0 595.28 841.89" xml:space="preserve">
<g>
	<path fill="#D0DD2B" d="M235.929,247.841c-2.58,0.96-5.1,1.8-7.5,2.46c1.32,5.4,2.28,10.979,2.88,16.62
		c-1.2,0.42-2.46,0.6-3.78,0.6c-1.38-5.28-2.46-10.68-3.18-16.08c-1.8,0.48-3.48,0.9-5.16,1.2c-0.48-1.02-0.72-2.1-0.72-3.3
		c5.58-2.76,11.1-4.439,16.62-5.04C235.629,245.322,235.929,246.521,235.929,247.841z M263.167,257.801v1.92
		c-3.12,0.24-6.18,0.36-9.18,0.42c0.36,4.32,0.54,8.76,0.54,13.439c-0.48,0.12-1.2,0.24-2.04,0.24c-1.02,0-1.68-0.06-1.98-0.12
		c-0.3-2.16-0.54-4.14-0.66-6.12c-3.78,1.38-7.44,2.58-11.04,3.66c-0.9-0.84-1.5-1.8-1.86-3c3.84-1.62,8.04-3.24,12.6-4.8
		c-0.12-1.08-0.18-2.1-0.18-3.18c-3.9,0.12-7.74,0.18-11.52,0.18c-0.3-1.26-0.42-2.58-0.42-3.96c3.84-0.12,7.74-0.24,11.759-0.36
		c-0.06-1.68-0.06-3.36-0.06-4.919c0.24-0.12,0.9-0.24,1.98-0.36c0.84,0,1.44,0.12,1.86,0.24c0.24,1.68,0.42,3.36,0.66,4.979
		c3.06,0,6.18-0.06,9.36-0.06C263.107,256.541,263.167,257.141,263.167,257.801z M263.587,232.062c0,6.72-0.48,12.6-1.38,17.64
		c-6.66,0-13.979-0.42-21.899-1.38c0-5.28,0.3-10.92,0.9-17.04c0.72-0.06,1.44-0.12,2.22-0.12c0.72,0,1.38,0.12,1.98,0.24
		c-0.36,4.5-0.6,8.939-0.78,13.259c4.38,0.36,8.939,0.72,13.62,0.96c0.36-3.42,0.6-6.78,0.78-10.14c-2.94-0.24-6.06-0.54-9.419-0.96
		c0-1.32,0.06-2.58,0.3-3.84C255.068,230.922,259.628,231.402,263.587,232.062z M266.467,265.421c-0.18,1.08-0.54,2.28-1.08,3.48
		c-3.3-0.36-5.94-1.02-7.98-1.92c0.48-1.44,0.9-2.58,1.32-3.42C261.248,263.921,263.828,264.581,266.467,265.421z"/>
	<path fill="#D0DD2B" d="M293.949,247.182h8.28c-0.36-0.42-0.72-0.9-0.96-1.38c0.84-0.66,1.859-1.32,3.06-1.98
		c1.08,1.08,2.04,2.22,2.88,3.36c7.979,0.12,13.92,0.18,17.88,0.24c0.06,0.48,0.12,0.96,0.12,1.44v1.62
		c-2.341,0.36-12.78,0.48-31.379,0.48h-1.98c-1.56,7.08-3.54,14.159-5.819,21.239c-1.8,0-3.12-0.36-3.96-0.96
		c1.62-6.78,3.54-13.56,5.82-20.399c-1.56,0-2.82-0.12-3.72-0.24c-0.18-0.48-0.24-1.08-0.24-1.74c0-0.6,0-1.08,0.12-1.56
		C286.689,247.242,289.989,247.182,293.949,247.182z M289.449,243.042c-1.26,0.18-2.46,0.24-3.66,0.24
		c-0.48-3.3-0.78-6.66-0.9-10.14c1.2-0.18,2.52-0.3,3.9-0.3C289.029,236.322,289.269,239.742,289.449,243.042z M296.229,227.982
		c2.64,0,4.56,0.12,5.7,0.3c0.06,0.36,0.12,0.84,0.12,1.38v1.5c-0.48,0.24-2.461,0.36-5.94,0.36c-4.32,0-7.38-0.12-9.18-0.36
		c-0.12-0.42-0.18-0.96-0.18-1.62c0-0.6,0-1.08,0.12-1.44C289.389,228.042,292.509,227.982,296.229,227.982z M304.929,269.741
		c-2.88,0.6-5.88,0.96-9.06,1.26c0.24,0.72,0.48,1.5,0.72,2.28c2.52-0.36,5.1-0.72,7.739-1.08c0.24,0.72,0.54,1.86,0.78,3.3
		c-3.96,0.84-7.8,1.38-11.459,1.74c-1.32-3.48-2.34-7.08-3.12-10.799c1.08-0.36,2.28-0.66,3.66-0.9c0.24,0.72,0.42,1.44,0.66,2.1
		c3.06-0.42,6.3-0.84,9.66-1.2C304.688,267.461,304.809,268.541,304.929,269.741z M303.128,234.162c0,3.18-0.3,6-0.779,8.52
		c-0.36,0.12-0.9,0.12-1.74,0.12c-0.96,0-1.5-0.06-1.74-0.24c0-1.8,0.12-3.6,0.48-5.4c-3.18-0.24-6.12-0.6-8.76-1.08
		c0.06-1.08,0.24-2.04,0.54-2.94C294.489,233.322,298.449,233.682,303.128,234.162z M296.708,242.922c-0.6,0.48-1.44,0.9-2.58,1.38
		c-1.08-1.2-1.98-2.82-2.7-4.86c0.72-0.6,1.62-1.08,2.7-1.38C295.329,239.862,296.169,241.482,296.708,242.922z M304.628,252.521
		c0,0.6,0.061,1.14,0.061,1.68c2.04,0.06,3.96,0.12,5.819,0.12c-0.06-0.78-0.06-1.56-0.06-2.34c0.6,0,1.32-0.06,2.04-0.18
		c0.779,0,1.439,0.06,1.92,0.06c0,0.9,0.06,1.74,0.06,2.58c3,0.12,5.82,0.24,8.399,0.36c0.421,1.26,0.66,4.02,0.66,8.34
		c0,0.36-0.3,0.54-0.779,0.6c-3.061,0.72-12.36,1.08-27.959,1.08c-0.24-0.3-0.3-0.78-0.3-1.5c0-0.66,0-1.2,0.12-1.62
		c1.5-0.06,3.66-0.12,6.54-0.24c-0.18-1.32-0.3-2.7-0.3-4.08c-2.4-0.06-4.92-0.12-7.5-0.24c-0.12-0.54-0.12-1.02-0.12-1.5
		c0-0.6,0.06-1.08,0.24-1.56c2.46,0,4.92,0.06,7.319,0.06c-0.06-0.48-0.06-1.02-0.06-1.5c0.6,0,1.32-0.06,2.04-0.18
		C303.549,252.461,304.148,252.521,304.628,252.521z M310.868,261.221c-0.12-1.26-0.24-2.46-0.24-3.6
		c-1.859,0-3.779-0.06-5.819-0.12c0,1.38,0.06,2.64,0.06,3.84C306.668,261.341,308.708,261.281,310.868,261.221z M309.608,243.042
		c-1.2,0.18-2.4,0.24-3.6,0.24c-0.48-3.3-0.78-6.66-0.9-10.14c1.2-0.18,2.52-0.3,3.899-0.3
		C309.248,236.322,309.488,239.742,309.608,243.042z M315.068,227.982c2.699,0,4.619,0.12,5.699,0.3c0.061,0.36,0.12,0.84,0.12,1.38
		v1.5c-0.48,0.24-2.46,0.36-5.939,0.36c-4.26,0-7.32-0.12-9.18-0.36c-0.12-0.42-0.181-0.96-0.181-1.62c0-0.6,0-1.08,0.12-1.44
		C308.229,228.042,311.348,227.982,315.068,227.982z M314.168,265.781c-0.12,0.78-0.24,1.56-0.3,2.28c2.88-0.42,5.819-0.84,8.88-1.2
		c0.239,0.96,0.359,2.1,0.479,3.3c-3.12,0.6-6.359,1.08-9.72,1.44c-0.06,0.54-0.12,1.08-0.12,1.56c2.82,0.06,5.76,0.24,8.82,0.48
		v1.56c0,0.84-0.061,1.38-0.12,1.68c-0.84-0.12-3.061-0.12-6.54-0.12c-2.58,0-4.62-0.18-6.06-0.48c0-3.3,0.36-6.78,1.08-10.5
		c0.42-0.06,1.02-0.12,1.739-0.12C312.908,265.661,313.568,265.721,314.168,265.781z M316.868,242.082
		c-0.601,0.48-1.44,0.96-2.58,1.38c-1.2-1.14-2.28-2.64-3.12-4.5c0.72-0.6,1.62-1.02,2.7-1.38
		C315.248,239.262,316.268,240.762,316.868,242.082z M323.168,234.042c0,3.3-0.36,6.24-0.96,8.82c-0.36,0.12-0.9,0.12-1.681,0.12
		c-0.96,0-1.5-0.06-1.68-0.24c0-1.92,0.18-3.78,0.66-5.7c-2.88-0.24-5.58-0.6-7.979-1.08c0.06-1.08,0.24-2.04,0.54-2.94
		C315.188,233.262,318.848,233.562,323.168,234.042z M319.508,261.041c0-0.6,0-1.68,0.12-3.24c-1.561,0-3.24-0.06-5.1-0.12
		c0,1.2,0.06,2.4,0.06,3.48C316.147,261.161,317.768,261.101,319.508,261.041z"/>
	<path fill="#D0DD2B" d="M350.109,246.521c1.32,0.12,2.7,0.18,4.02,0.24c0.42-2.04,0.96-3.9,1.62-5.7c1.08,0.12,2.22,0.3,3.54,0.6
		c-0.24,1.92-0.66,3.72-1.14,5.46c2.1,0.24,4.14,0.48,6.119,0.72v1.56c0,0.6-0.12,1.2-0.359,1.8c-8.04,0-16.14-0.48-24.299-1.56
		c-0.12-0.66-0.181-1.26-0.181-1.8c0-0.479,0-1.02,0.12-1.62c2.22,0,4.439,0.06,6.66,0.12c-0.36-1.5-0.66-3-0.78-4.56
		c1.08-0.36,2.22-0.6,3.3-0.72C349.329,242.862,349.749,244.722,350.109,246.521z M347.229,253.841c0,0.96-0.12,2.7-0.3,5.22
		c2.399,0.24,4.62,0.48,6.72,0.78c-0.12,0.54-0.18,1.08-0.24,1.56c-0.12,0.78-0.24,1.32-0.359,1.68c-1.561,0-3.061-0.12-4.5-0.36
		c-0.721,0-1.32-0.12-1.86-0.24c-0.12,0.84-0.18,1.62-0.24,2.46c0,0.24-0.06,0.42-0.06,0.6c2.16,0.24,4.2,0.48,6.239,0.72
		c-0.119,0.54-0.18,1.08-0.239,1.62c-0.12,0.72-0.181,1.26-0.301,1.62c-1.439,0-2.879-0.06-4.199-0.3
		c-0.66-0.06-1.26-0.12-1.86-0.24c-0.3,2.34-0.6,4.62-0.96,6.9c-1.38,0-2.699-0.12-3.899-0.36c0-4.92,0.6-12.359,1.92-22.199
		C344.529,253.301,345.909,253.481,347.229,253.841z M351.249,235.602c-0.3-1.74-0.479-3.42-0.479-5.1c0.36-0.24,0.96-0.36,1.8-0.48
		c0.9,0,1.56,0.12,1.92,0.24c0.36,1.86,0.6,3.78,0.66,5.7c2.279,0.24,4.68,0.54,7.14,0.84c0,1.08-0.12,2.28-0.3,3.479
		c-6.72,0-13.319-0.54-19.859-1.74v-1.8c0-0.48,0-1.02,0.12-1.5C345.01,235.242,348.01,235.362,351.249,235.602z M361.809,253.901
		c0,9.18-0.3,16.679-0.84,22.499c-3.96,0-6.3-0.3-7.02-0.9c0-0.96,0-1.86,0.12-2.7c1.08,0,2.1,0,3.06,0.12
		c0-5.64,0.061-10.979,0.181-16.079c-2.521-0.12-4.98-0.36-7.32-0.72c-0.06-0.42-0.06-0.9-0.06-1.44c0-0.66,0.06-1.14,0.18-1.44
		C353.709,253.241,357.609,253.481,361.809,253.901z M371.349,231.162c-0.24,1.2-0.48,2.28-0.66,3.36c4.2,0.06,8.88,0.3,13.979,0.66
		c0,1.2-0.18,2.22-0.479,3.12c-5.88,0-10.56-0.18-14.04-0.6c-0.3,1.62-0.54,3.18-0.72,4.62c4.8,0.12,9.779,0.3,14.819,0.48
		c0,4.32-0.3,7.8-0.84,10.5c-4.2,0-8.52-0.24-12.899-0.72c0,0.96-0.061,1.979-0.061,2.939c4.32-0.36,8.34-0.6,12.18-0.6
		c0.12,0.48,0.18,0.9,0.18,1.38c0,0.6-0.06,1.08-0.18,1.5c-2.04,0.36-6.119,0.72-12.239,1.08c-0.06,0.78-0.06,1.56-0.06,2.28
		c4.26-0.36,8.279-0.54,12.119-0.54c0.12,0.42,0.18,0.9,0.18,1.38c0,0.6-0.06,1.08-0.18,1.44c-2.1,0.42-6.18,0.78-12.18,1.14
		c0,0.6-0.06,1.2-0.06,1.74c4.319-0.36,8.399-0.54,12.239-0.54c0.12,0.42,0.18,0.9,0.18,1.38c0,0.6-0.06,1.08-0.18,1.44
		c-2.1,0.42-6.18,0.78-12.3,1.14c-0.06,0.54-0.06,1.02-0.06,1.5c0.66,0.24,5.1,0.42,13.379,0.42v-2.46c0.66-0.06,1.2-0.12,1.62-0.12
		c0.66,0,1.2,0.12,1.56,0.24c0.12,0.78,0.24,1.86,0.24,3.3c0,1.14-0.18,1.98-0.479,2.46c-1.2,0.36-5.46,0.54-12.66,0.54
		c-3.84-0.12-6.239-0.6-7.319-1.44c-0.42-3.72-0.6-8.1-0.6-13.14c0.239-5.28,0.66-9.6,1.26-12.839c1.32,0,2.52,0.12,3.479,0.3v0.84
		c3.78,0.12,7.02,0.3,9.78,0.54c0.119-1.5,0.18-2.94,0.18-4.38c-5.4-0.06-10.56-0.24-15.359-0.48c0-0.84,0.12-2.28,0.42-4.26
		c0.72-4.56,1.32-7.859,1.92-10.02C368.709,230.742,369.969,230.922,371.349,231.162z"/>
</g>
</svg>
